<?xml version="1.0" encoding="iso-8859-1"?>
<!-- Uploaded to: SVG Repo, www.svgrepo.com, Generator: SVG Repo Mixer Tools -->
<!DOCTYPE svg PUBLIC "-//W3C//DTD SVG 1.1//EN" "http://www.w3.org/Graphics/SVG/1.1/DTD/svg11.dtd">
<svg fill="#000000" version="1.1" id="Capa_1" xmlns="http://www.w3.org/2000/svg" xmlns:xlink="http://www.w3.org/1999/xlink" 
	 width="800px" height="800px" viewBox="0 0 487.019 487.019"
	 xml:space="preserve">
<g>
	<g id="Layer_2_11_">
		<g>
			<path d="M131.442,64.503c0.979,4.565,4.219,8.89,9.15,12.897c0.791,12.085,4.041,22.159,8.859,30.635
				c0.02,0.289,0.043,0.578,0.07,0.868c1.695,17.812,6.027,40.958,6.027,40.958s-8.521,3.888-8.521,19.526
				c2.988,39.245,18.596,22.332,21.814,39.52c5.352,28.584,30.658,49.263,46.412,56.397c9.084,4.116,18.432,6.221,28.256,6.432
				c9.824-0.211,19.172-2.314,28.258-6.432c15.752-7.136,41.06-27.813,46.412-56.397c3.219-17.188,18.824-0.274,21.813-39.52
				c0-15.639-8.521-19.526-8.521-19.526s4.332-23.146,6.029-40.958c0.027-0.29,0.049-0.579,0.068-0.868
				c4.817-8.476,8.067-18.55,8.86-30.635c4.933-4.008,8.172-8.332,9.148-12.897c16.567-5.166,26.356-11.506,26.356-18.365
				C381.934,28.853,289.008,0,243.508,0S105.085,28.852,105.085,46.138C105.085,52.997,114.876,59.337,131.442,64.503z"/>
			<path d="M368.332,334.34c-17.348-6.256-47.549-24.289-52.723-27.072c-1.343-0.779-2.896-1.234-4.56-1.234
				c-3.629,0-6.754,2.135-8.209,5.213c-14.305,23.949-40.823,86.668-59.33,87.956c-18.506-1.288-45.023-64.007-59.33-87.956
				c-1.455-3.078-4.58-5.213-8.211-5.213c-1.662,0-3.215,0.455-4.557,1.234c-5.174,2.783-35.375,20.816-52.723,27.072
				c-58.236,20.999-84.428,42.415-84.428,57.017c0,14.587,0,95.662,0,95.662h209.248h209.248c0,0,0-81.075,0-95.662
				C452.759,376.755,426.566,355.339,368.332,334.34z"/>
			<path d="M209.167,327.609c2.705,0,5.192-0.909,7.195-2.426c6.738-4.432,11.278-13.664,15.406-13.824l11.744,0.058l11.743-0.058
				c4.128,0.16,8.668,9.394,15.405,13.824c2.004,1.517,4.49,2.426,7.195,2.426c6.483,0,11.75-5.168,11.934-11.606h0.018v-24.991
				h-0.031c-0.321-6.312-5.526-11.334-11.92-11.334c-0.649,0-1.283,0.064-1.906,0.166c-0.161,0.024-0.325,0.043-0.481,0.073
				c-0.045,0.011-0.087,0.022-0.131,0.031c-0.324,0.067-0.642,0.147-0.951,0.243c-0.138,0.043-0.272,0.096-0.407,0.143
				c-0.175,0.061-0.35,0.12-0.518,0.189c-1.191,0.471-2.289,1.119-3.256,1.929c-5.587,4.362-9.146,12.45-16.209,12.978
				c-0.672,0.053-1.357,0.055-2.051,0.041c-0.618-0.008-4.836-0.011-8.434-0.01c-3.598-0.001-7.816,0.002-8.433,0.01
				c-0.694,0.014-1.381,0.012-2.052-0.041c-7.062-0.525-10.622-8.613-16.21-12.978c-0.966-0.81-2.064-1.458-3.253-1.929
				c-0.171-0.069-0.346-0.129-0.52-0.189c-0.135-0.047-0.269-0.1-0.407-0.143c-0.31-0.096-0.628-0.176-0.951-0.243
				c-0.044-0.009-0.086-0.021-0.131-0.031c-0.156-0.03-0.319-0.049-0.481-0.073c-0.622-0.102-1.258-0.166-1.908-0.166
				c-6.391,0-11.597,5.022-11.918,11.334h-0.031v24.991h0.017C197.417,322.441,202.683,327.609,209.167,327.609z"/>
		</g>
	</g>
</g>
</svg>